<svg xmlns="http://www.w3.org/2000/svg" width="1366" height="349.268" viewBox="0 0 1366 349.268">
  <path id="Unión_3" data-name="Unión 3" d="M-2678.5,352.267v-175h-.5V82.227h20.68c20.679,0,61.849,0,103.588-19.825C-2513.467,42.873-2472.2,2.778-2430.464,3c41.264-.222,82.529,39.873,124.268,55.465,41.17,15.593,82.529,8.168,124.268,7.945,41.074.223,82.529,7.648,124.269,15.816,40.98,8.168,82.528,15.592,123.319,3.935,41.834-12.1,83.478-43.288,124.268-39.576,41.738,3.713,83.478,43.808,124.267,35.641,41.645-8.167,83.478-63.113,124.268-71.281,41.549-8.167,82.529,31.928,124.268,43.585,41.454,12.1,82.529-4.233,103.4-11.88L-1313,34.706V177.268h-.5v175Z" transform="translate(2679 -3)" fill="#5e17eb"/>
</svg>
