<svg id="wave" xmlns="http://www.w3.org/2000/svg" width="1366" height="677" viewBox="0 0 1366 677">
  <path id="Unión_2" data-name="Unión 2" d="M958.833,606.653c-37.944-21.9-75.889-78.211-94.861-105.638L845,473.172V339.691h.5V-59.5h1365V339.691h.5v66.74l-18.973,27.843c-18.972,27.426-56.916,83.739-94.861,83.425-18.972.157-37.945-13.844-56.917-27.844s-37.945-28-56.916-27.842c-37.945-.313-75.889,56-113.834,66.74-17.864,5.252-35.727.636-53.591-3.98-20.081-5.188-40.162-10.378-60.241-1.547-37.945,16.685-75.889,83.426-113.834,66.74S1565.944,473.172,1528,456.487s-75.889,50.055-113.834,77.9c-37.944,27.427-75.889,17-113.833-22.316-37.945-38.9-75.889-105.637-113.834-94.479-37.944,10.741-75.889,100.424-113.833,150.166-25.568,33.94-51.135,49.745-76.7,49.744C983.587,617.5,971.21,613.8,958.833,606.653Z" transform="translate(-845 59.5)" fill="#5e17eb"/>
</svg>
