<?xml version="1.0" standalone="no"?><svg xmlns="http://www.w3.org/2000/svg" viewBox="0 0 1440 320"><path fill="#5E17EB" fill-opacity="1" d="M0,320L15,304C30,288,60,256,90,234.7C120,213,150,203,180,192C210,181,240,171,270,170.7C300,171,330,181,360,176C390,171,420,149,450,170.7C480,192,510,256,540,288C570,320,600,320,630,304C660,288,690,256,720,218.7C750,181,780,139,810,144C840,149,870,203,900,208C930,213,960,171,990,176C1020,181,1050,235,1080,224C1110,213,1140,139,1170,138.7C1200,139,1230,213,1260,245.3C1290,277,1320,267,1350,250.7C1380,235,1410,213,1425,202.7L1440,192L1440,0L1425,0C1410,0,1380,0,1350,0C1320,0,1290,0,1260,0C1230,0,1200,0,1170,0C1140,0,1110,0,1080,0C1050,0,1020,0,990,0C960,0,930,0,900,0C870,0,840,0,810,0C780,0,750,0,720,0C690,0,660,0,630,0C600,0,570,0,540,0C510,0,480,0,450,0C420,0,390,0,360,0C330,0,300,0,270,0C240,0,210,0,180,0C150,0,120,0,90,0C60,0,30,0,15,0L0,0Z"></path></svg>