<svg xmlns="http://www.w3.org/2000/svg" width="1366" height="242.235" viewBox="0 0 1366 242.235">
  <g id="wave_Abajo_4CBE96" data-name="wave Abajo#4CBE96" style="isolation: isolate">
    <path id="wave_Abajo_4CBE96-2" data-name="wave Abajo#4CBE96" d="M0,195.425H20.68c20.68,0,61.849,0,103.588-27.557C165.533,140.724,206.8,84.99,248.536,85.3c41.265-.31,82.529,55.424,124.268,77.1,41.17,21.674,82.529,11.353,124.268,11.043,41.075.31,82.529,10.631,124.268,21.984,40.98,11.353,82.529,21.674,123.319,5.47,41.834-16.823,83.478-60.171,124.268-55.011,41.739,5.16,83.478,60.894,124.268,49.541,41.644-11.353,83.478-87.729,124.268-99.082,41.549-11.353,82.529,44.38,124.268,60.584,41.454,16.823,82.529-5.883,103.4-16.514L1366,129.371V327.534H0Z" transform="translate(0 -85.299)" fill="#5e17eb"/>
  </g>
</svg>
